<svg xmlns="http://www.w3.org/2000/svg" viewBox="0 0 52 52"><title>imstagram</title><path d="M26,16.77A9.23,9.23,0,1,0,35.23,26,9.22,9.22,0,0,0,26,16.77ZM26,32a6,6,0,1,1,6-6,6,6,0,0,1-6,6ZM37.76,16.39a2.15,2.15,0,1,1-2.15-2.15A2.15,2.15,0,0,1,37.76,16.39Zm6.12,2.19c-.14-2.89-.8-5.44-2.91-7.55s-4.66-2.76-7.54-2.9S21.55,8,18.57,8.13,13.14,8.92,11,11s-2.76,4.66-2.91,7.54S8,30.45,8.12,33.42,8.92,38.86,11,41s4.66,2.76,7.54,2.9,11.88.17,14.86,0S38.86,43.08,41,41s2.76-4.66,2.91-7.55.17-11.87,0-14.84ZM40,36.61A6.06,6.06,0,0,1,36.62,40c-2.37.94-8,.73-10.62.73S17.75,41,15.39,40A6.06,6.06,0,0,1,12,36.61c-.94-2.37-.72-8-.72-10.61S11,17.75,12,15.39A6.06,6.06,0,0,1,15.39,12c2.37-.94,8-.73,10.61-.73S34.25,11,36.62,12A6.09,6.09,0,0,1,40,15.39c.94,2.37.72,8,.72,10.61S41,34.25,40,36.61Z"/></svg>