<svg xmlns="http://www.w3.org/2000/svg" viewBox="0 0 52 52"><defs><style>.a{fill:#1da1f3;}</style></defs><title>twitter [已恢复]</title><path class="a" d="M43.61,17c0,.4,0,.79,0,1.18,0,12-9.14,25.85-25.84,25.85A25.64,25.64,0,0,1,3.84,39.92,17.55,17.55,0,0,0,6,40a18.17,18.17,0,0,0,11.28-3.88,9.09,9.09,0,0,1-8.49-6.3,10.66,10.66,0,0,0,1.71.14,9.43,9.43,0,0,0,2.39-.31,9.08,9.08,0,0,1-7.28-8.91v-.11a9.24,9.24,0,0,0,4.1,1.15,9.1,9.1,0,0,1-4-7.57A9,9,0,0,1,6.93,9.66a25.86,25.86,0,0,0,18.73,9.51,10.37,10.37,0,0,1-.22-2.09,9.09,9.09,0,0,1,15.72-6.21,17.77,17.77,0,0,0,5.76-2.19,9,9,0,0,1-4,5,18.37,18.37,0,0,0,5.23-1.4A19.48,19.48,0,0,1,43.61,17Z"/></svg>